[h264 @ 0x55be15da4800] Reinit context to 1280x720, pix_fmt: yuv420p
Input #0, mov,mp4,m4a,3gp,3g2,mj2, from '/var/www/html/project/media/video/original/2025-02-26_Soccorso_persona_acquedotto.mp4':
  Metadata:
    major_brand     : isom
    minor_version   : 512
    compatible_brands: isomiso2avc1mp41
    creation_time   : 2025-02-26T18:06:06.000000Z
    encoder         : Blackmagic Design DaVinci Resolve
  Duration: 00:00:47.68, start: 0.000000, bitrate: 4949 kb/s
    Stream #0:0(und): Video: h264 (Main), 1 reference frame (avc1 / 0x31637661), yuv420p(tv, bt709, left), 1280x720, 4753 kb/s, SAR 1:1 DAR 16:9, 25 fps, 25 tbr, 12800 tbn, 50 tbc (default)
    Metadata:
      creation_time   : 2025-02-26T18:06:06.000000Z
      handler_name    : VideoHandler
      encoder         : H.264
      timecode        : 01:00:00:00
    Stream #0:1(und): Audio: aac (LC) (mp4a / 0x6134706D), 48000 Hz, stereo, fltp, 192 kb/s (default)
    Metadata:
      creation_time   : 2025-02-26T18:06:06.000000Z
      handler_name    : SoundHandler
    Stream #0:2(eng): Data: none (tmcd / 0x64636D74) (default)
    Metadata:
      creation_time   : 2025-02-26T18:06:06.000000Z
      handler_name    : TimeCodeHandler
      timecode        : 01:00:00:00
[h264 @ 0x55be15dec640] Reinit context to 1280x720, pix_fmt: yuv420p
Input #1, mov,mp4,m4a,3gp,3g2,mj2, from '/var/www/html/project/static/images/templates/Codino.mp4':
  Metadata:
    major_brand     : mp42
    minor_version   : 1
    compatible_brands: isommp41mp42
    creation_time   : 2021-07-11T07:02:58.000000Z
  Duration: 00:00:02.00, start: 0.000000, bitrate: 1007 kb/s
    Stream #1:0(ita): Audio: aac (LC) (mp4a / 0x6134706D), 44100 Hz, stereo, fltp, 102 kb/s (default)
    Metadata:
      creation_time   : 2021-07-11T07:02:58.000000Z
      handler_name    : Core Media Audio
    Stream #1:1(und): Video: h264 (High), 1 reference frame (avc1 / 0x31637661), yuv420p(tv, bt709, progressive, left), 1280x720 [SAR 1:1 DAR 16:9], 813 kb/s, 25 fps, 25 tbr, 25k tbn, 50k tbc (default)
    Metadata:
      creation_time   : 2021-07-11T07:02:58.000000Z
      handler_name    : Core Media Video
[Parsed_scale_0 @ 0x55be15e22580] w:1280 h:720 flags:'bilinear' interl:0
[Parsed_scale_2 @ 0x55be15e0f940] w:1280 h:720 flags:'bilinear' interl:0
Stream mapping:
  Stream #0:0 (h264) -> scale
  Stream #0:1 (aac) -> concat:in0:a0
  Stream #1:0 (aac) -> concat:in1:a0
  Stream #1:1 (h264) -> scale
  concat:out:v0 -> Stream #0:0 (libx264)
  concat:out:a0 -> Stream #0:1 (aac)
Press [q] to stop, [?] for help
[h264 @ 0x55be15df04c0] Reinit context to 1280x720, pix_fmt: yuv420p
[h264 @ 0x55be16218a40] Reinit context to 1280x720, pix_fmt: yuv420p
[Parsed_scale_0 @ 0x55be1709b4c0] w:1280 h:720 flags:'bilinear' interl:0
[Parsed_scale_2 @ 0x55be170a3d00] w:1280 h:720 flags:'bilinear' interl:0
[graph 0 input from stream 0:0 @ 0x55be170a6fc0] w:1280 h:720 pixfmt:yuv420p tb:1/12800 fr:25/1 sar:1/1 sws_param:flags=2
[graph 0 input from stream 1:1 @ 0x55be170a8040] w:1280 h:720 pixfmt:yuv420p tb:1/25000 fr:25/1 sar:1/1 sws_param:flags=2
[graph_0_in_0_1 @ 0x55be170a9000] tb:1/48000 samplefmt:fltp samplerate:48000 chlayout:0x3
[graph_0_in_1_0 @ 0x55be170aa140] tb:1/44100 samplefmt:fltp samplerate:44100 chlayout:0x3
[Parsed_concat_4 @ 0x55be170a5000] auto-inserting filter 'auto_resampler_0' between the filter 'graph_0_in_1_0' and the filter 'Parsed_concat_4'
[Parsed_scale_0 @ 0x55be1709b4c0] w:1280 h:720 fmt:yuv420p sar:1/1 -> w:1280 h:720 fmt:yuv420p sar:1/1 flags:0x2
[Parsed_setsar_1 @ 0x55be170a3640] w:1280 h:720 sar:1/1 dar:16/9 -> sar:1/1 dar:16/9
[Parsed_scale_2 @ 0x55be170a3d00] w:1280 h:720 fmt:yuv420p sar:1/1 -> w:1280 h:720 fmt:yuv420p sar:1/1 flags:0x2
[Parsed_setsar_3 @ 0x55be170a4240] w:1280 h:720 sar:1/1 dar:16/9 -> sar:1/1 dar:16/9
[auto_resampler_0 @ 0x55be170a7680] ch:2 chl:stereo fmt:fltp r:44100Hz -> ch:2 chl:stereo fmt:fltp r:48000Hz
[libx264 @ 0x55be15df5a80] using SAR=1/1
[libx264 @ 0x55be15df5a80] using cpu capabilities: MMX2 SSE2Fast SSSE3 SSE4.2 AVX FMA3 BMI2 AVX2
[libx264 @ 0x55be15df5a80] profile High, level 3.1
[libx264 @ 0x55be15df5a80] 264 - core 155 r2917 0a84d98 - H.264/MPEG-4 AVC codec - Copyleft 2003-2018 - http://www.videolan.org/x264.html - options: cabac=1 ref=1 deblock=1:0:0 analyse=0x3:0x113 me=hex subme=2 psy=1 psy_rd=1.00:0.00 mixed_ref=0 me_range=16 chroma_me=1 trellis=0 8x8dct=1 cqm=0 deadzone=21,11 fast_pskip=1 chroma_qp_offset=0 threads=22 lookahead_threads=5 sliced_threads=0 nr=0 decimate=1 interlaced=0 bluray_compat=0 constrained_intra=0 bframes=3 b_pyramid=2 b_adapt=1 b_bias=0 direct=1 weightb=1 open_gop=0 weightp=1 keyint=250 keyint_min=25 scenecut=40 intra_refresh=0 rc_lookahead=10 rc=crf mbtree=1 crf=18.0 qcomp=0.60 qpmin=0 qpmax=69 qpstep=4 ip_ratio=1.40 aq=1:1.00
Output #0, mp4, to '/var/www/html/project/media/video/watermarks/2025-02-26_Soccorso_persona_acquedotto.mp4':
  Metadata:
    major_brand     : isom
    minor_version   : 512
    compatible_brands: isomiso2avc1mp41
    encoder         : Lavf58.29.100
    Stream #0:0: Video: h264 (libx264), 1 reference frame (avc1 / 0x31637661), yuv420p(progressive), 1280x720 [SAR 1:1 DAR 16:9], q=-1--1, 25 fps, 12800 tbn, 25 tbc (default)
    Metadata:
      encoder         : Lavc58.54.100 libx264
    Side data:
      cpb: bitrate max/min/avg: 0/0/0 buffer size: 0 vbv_delay: -1
    Stream #0:1: Audio: aac (LC) (mp4a / 0x6134706D), 48000 Hz, stereo, fltp, delay 1024, 128 kb/s (default)
    Metadata:
      encoder         : Lavc58.54.100 aac
[Parsed_concat_4 @ 0x55be170a5000] EOF on in0:v0, 1 streams left in segment.
[Parsed_concat_4 @ 0x55be170a5000] EOF on in0:a0, 0 streams left in segment.
[Parsed_concat_4 @ 0x55be170a5000] Segment finished at pts=47680000
[Parsed_concat_4 @ 0x55be170a5000] EOF on in1:v0, 1 streams left in segment.
[Parsed_concat_4 @ 0x55be170a5000] EOF on in1:a0, 0 streams left in segment.
[Parsed_concat_4 @ 0x55be170a5000] Segment finished at pts=49698687
No more output streams to write to, finishing.
frame= 1242 fps= 78 q=-1.0 Lsize=   23649kB time=00:00:49.70 bitrate=3897.5kbits/s speed=3.14x    
[AVIOContext @ 0x55be15da2c00] Statistics: 0 seeks, 31 writeouts
video:22836kB audio:776kB subtitle:0kB other streams:0kB global headers:0kB muxing overhead: 0.158294%
Input file #0 (/var/www/html/project/media/video/original/2025-02-26_Soccorso_persona_acquedotto.mp4):
  Input stream #0:0 (video): 1192 packets read (28331208 bytes); 1192 frames decoded; 
  Input stream #0:1 (audio): 2235 packets read (1144552 bytes); 2235 frames decoded (2288640 samples); 
  Input stream #0:2 (data): 1 packets read (4 bytes); 
  Total: 3428 packets (29475764 bytes) demuxed
Input file #1 (/var/www/html/project/static/images/templates/Codino.mp4):
  Input stream #1:0 (audio): 89 packets read (26579 bytes); 87 frames decoded (89024 samples); 
  Input stream #1:1 (video): 50 packets read (203365 bytes); 50 frames decoded; 
  Total: 139 packets (229944 bytes) demuxed
Output file #0 (/var/www/html/project/media/video/watermarks/2025-02-26_Soccorso_persona_acquedotto.mp4):
  Output stream #0:0 (video): 1242 frames encoded; 1242 packets muxed (23383932 bytes); 
  Output stream #0:1 (audio): 2330 frames encoded (2385537 samples); 2331 packets muxed (794462 bytes); 
  Total: 3573 packets (24178394 bytes) muxed
[AVIOContext @ 0x55be15df4680] Statistics: 2 seeks, 96 writeouts
[libx264 @ 0x55be15df5a80] frame I:7     Avg QP:11.37  size: 81487
[libx264 @ 0x55be15df5a80] frame P:409   Avg QP:15.38  size: 32816
[libx264 @ 0x55be15df5a80] frame B:826   Avg QP:18.21  size: 11369
[libx264 @ 0x55be15df5a80] consecutive B-frames:  4.3% 12.4% 25.6% 57.6%
[libx264 @ 0x55be15df5a80] mb I  I16..4: 44.9% 16.2% 38.9%
[libx264 @ 0x55be15df5a80] mb P  I16..4: 22.6% 14.3%  3.5%  P16..4: 22.2% 10.5%  9.0%  0.0%  0.0%    skip:18.0%
[libx264 @ 0x55be15df5a80] mb B  I16..4:  5.1%  4.3%  0.5%  B16..8: 21.8%  8.8%  2.0%  direct:14.1%  skip:43.4%  L0:40.2% L1:43.7% BI:16.1%
[libx264 @ 0x55be15df5a80] 8x8 transform intra:37.4% inter:16.4%
[libx264 @ 0x55be15df5a80] coded y,uvDC,uvAC intra: 28.6% 26.6% 5.5% inter: 18.7% 17.6% 0.3%
[libx264 @ 0x55be15df5a80] i16 v,h,dc,p: 46% 29% 15% 10%
[libx264 @ 0x55be15df5a80] i8 v,h,dc,ddl,ddr,vr,hd,vl,hu: 21% 31% 27%  4%  4%  3%  4%  3%  3%
[libx264 @ 0x55be15df5a80] i4 v,h,dc,ddl,ddr,vr,hd,vl,hu: 25% 22% 20%  4%  9%  6%  7%  3%  3%
[libx264 @ 0x55be15df5a80] i8c dc,h,v,p: 62% 20% 14%  4%
[libx264 @ 0x55be15df5a80] Weighted P-Frames: Y:3.9% UV:0.0%
[libx264 @ 0x55be15df5a80] kb/s:3765.42
[aac @ 0x55be15e0c300] Qavg: 1141.783
[AVIOContext @ 0x55be15dabb00] Statistics: 29573303 bytes read, 4 seeks
[AVIOContext @ 0x55be15dbdb40] Statistics: 1530915 bytes read, 42 seeks
